<svg width="2454" height="577" viewBox="0 0 2454 577" fill="none" xmlns="http://www.w3.org/2000/svg">
<path d="M832.638 355.223H873.229V165.344H816.458L770.473 283.769L724.488 165.344H668V355.223H708.308V218.578L761.673 355.223H779.272L832.638 218.578V355.223Z" fill="#374055"/>
<path d="M992.299 355.223H1028.35V266.404C1028.35 226.834 999.679 214.308 968.455 214.308C946.882 214.308 925.308 221.14 908.561 235.944L922.186 260.141C933.824 249.323 947.449 243.914 962.21 243.914C980.377 243.914 992.299 253.024 992.299 266.973V286.047C983.215 274.944 967.036 269.251 948.869 269.251C927.012 269.251 901.181 280.922 901.181 313.091C901.181 343.836 927.012 358.639 948.869 358.639C966.752 358.639 982.932 352.092 992.299 340.989V355.223ZM992.299 322.201C986.338 330.172 974.984 334.157 963.345 334.157C949.152 334.157 937.514 326.755 937.514 313.945C937.514 300.85 949.152 293.164 963.345 293.164C974.984 293.164 986.338 297.149 992.299 305.12V322.201Z" fill="#374055"/>
<path d="M1152.95 355.223H1198.09L1142.17 280.068L1196.38 217.724H1152.1L1100.16 278.93V165.344H1064.11V355.223H1100.16V319.923L1116.62 302.273L1152.95 355.223Z" fill="#374055"/>
<path d="M1201.12 286.331C1201.12 330.456 1232.62 358.639 1274.35 358.639C1295.64 358.639 1316.93 352.376 1330.84 339.566L1314.94 316.222C1306.14 324.763 1291.1 329.887 1278.33 329.887C1255.05 329.887 1241.14 315.368 1238.87 298.003H1340.77V290.032C1340.77 245.053 1312.96 214.308 1272.08 214.308C1230.35 214.308 1201.12 246.477 1201.12 286.331ZM1272.08 243.06C1295.92 243.06 1305.01 260.426 1305.86 273.521H1238.3C1240 259.856 1249.66 243.06 1272.08 243.06Z" fill="#374055"/>
<path d="M1532.3 355.223H1572.89V165.344H1516.12L1470.14 283.769L1424.15 165.344H1367.67V355.223H1407.97V218.578L1461.34 355.223H1478.94L1532.3 218.578V355.223Z" fill="#374055"/>
<path d="M1610.21 376.574L1604.82 409.027C1609.36 410.166 1618.45 411.02 1622.7 411.02C1646.26 410.45 1664.43 403.618 1674.65 377.712L1739.08 217.724H1700.2L1664.43 313.376L1628.66 217.724H1590.06L1645.7 357.216L1640.59 368.888C1637.18 376.289 1630.94 378.851 1621.57 378.851C1618.16 378.851 1613.34 377.997 1610.21 376.574Z" fill="#374055"/>
<path d="M1756.03 355.223H1796.34V276.083H1888.02V241.352H1796.34V200.074H1890.01V165.344H1756.03V355.223Z" fill="#374055"/>
<path d="M2009.88 355.223H2045.93V217.724H2009.88V310.813C2003.64 318.784 1992.57 326.471 1978.66 326.471C1963.33 326.471 1953.39 320.208 1953.39 301.134V217.724H1917.34V315.368C1917.34 342.128 1931.54 358.639 1961.63 358.639C1984.05 358.639 2000.51 348.391 2009.88 337.858V355.223Z" fill="#374055"/>
<path d="M2174.26 355.223H2210.31V258.148C2210.31 231.389 2195.84 214.308 2165.75 214.308C2143.32 214.308 2126.58 225.126 2117.78 235.659V217.724H2081.73V355.223H2117.78V262.703C2123.74 254.448 2134.81 246.477 2149 246.477C2164.33 246.477 2174.26 253.024 2174.26 272.097V355.223Z" fill="#374055"/>
<path d="M2340.35 355.223H2376.68V165.344H2340.35V235.374C2329.56 221.425 2314.23 214.308 2298.05 214.308C2263.14 214.308 2237.31 241.637 2237.31 286.616C2237.31 332.449 2263.42 358.639 2298.05 358.639C2314.52 358.639 2329.56 351.238 2340.35 337.858V355.223ZM2340.35 310.813C2334.1 319.923 2321.33 326.471 2309.13 326.471C2288.69 326.471 2274.49 310.244 2274.49 286.616C2274.49 262.703 2288.69 246.477 2309.13 246.477C2321.33 246.477 2334.1 253.024 2340.35 262.134V310.813Z" fill="#374055"/>
<path d="M2407.89 335.296C2407.89 347.821 2418.39 358.354 2430.88 358.354C2443.37 358.354 2453.88 347.821 2453.88 335.296C2453.88 322.77 2443.37 312.237 2430.88 312.237C2418.39 312.237 2407.89 322.77 2407.89 335.296Z" fill="#374055"/>
<mask id="mask0" mask-type="alpha" maskUnits="userSpaceOnUse" x="0" y="0" width="568" height="284">
<rect x="567.285" width="283.641" height="567.283" transform="rotate(90 567.285 0)" fill="#C4C4C4"/>
</mask>
<g mask="url(#mask0)">
<path d="M0.00243035 252.864C0.00243107 236.354 13.4355 222.92 29.9465 222.92L43.9558 222.92C52.5237 222.92 60.1388 217.413 62.901 209.22C66.2327 199.338 70.2757 189.583 74.9203 180.227C76.313 177.423 77.0487 174.299 77.0487 171.19C77.0487 165.855 74.9813 160.851 71.2307 157.1L61.3177 147.187C55.6615 141.531 52.5459 134.012 52.5459 126.013C52.5459 118.014 55.6615 110.494 61.3166 104.839L104.841 61.3164C110.496 55.6602 118.016 52.5445 126.015 52.5445C134.012 52.5445 141.532 55.6591 147.188 61.3164L157.101 71.2294C163.164 77.2922 172.457 78.7758 180.229 74.9167C189.582 70.2732 199.337 66.2302 209.22 62.8997C217.415 60.1375 222.92 52.5235 222.92 43.9533L222.92 29.9441C222.922 13.4342 236.355 -1.44654e-05 252.866 -1.37437e-05L314.419 -1.10531e-05C330.93 -1.03314e-05 344.363 13.4342 344.363 29.9441L344.363 43.9522C344.363 52.5213 349.87 60.1364 358.063 62.8986C367.947 66.2291 377.702 70.2721 387.054 74.9156C394.825 78.7747 404.119 77.2911 410.182 71.2283L420.096 61.3153C425.751 55.6591 433.271 52.5434 441.27 52.5434C449.268 52.5434 456.788 55.658 462.444 61.3153L505.97 104.836C511.626 110.492 514.742 118.011 514.742 126.011C514.742 134.008 511.626 141.529 505.971 147.184L496.057 157.097C492.306 160.849 490.24 165.853 490.24 171.187C490.24 174.295 490.977 177.421 492.368 180.225C497.012 189.582 501.056 199.336 504.388 209.218C507.15 217.412 514.763 222.918 523.333 222.918L537.341 222.918C553.852 222.92 567.285 236.354 567.285 252.864L567.285 314.416C567.285 330.926 553.852 344.361 537.341 344.361L523.332 344.361C514.763 344.361 507.149 349.867 504.387 358.061C501.055 367.943 497.012 377.697 492.367 387.053C490.975 389.857 490.239 392.982 490.239 396.091C490.24 401.426 492.306 406.429 496.057 410.181L505.97 420.094C511.626 425.749 514.742 433.269 514.742 441.268C514.742 449.266 511.626 456.786 505.971 462.442L462.446 505.964C456.791 511.62 449.271 514.736 441.273 514.736C433.276 514.736 425.755 511.621 420.1 505.964L410.187 496.051C404.124 489.988 394.83 488.505 387.059 492.364C377.705 497.007 367.951 501.05 358.068 504.381C349.873 507.143 344.367 514.757 344.367 523.327L344.367 537.335C344.367 553.845 330.934 567.279 314.423 567.279L252.871 567.279C236.36 567.279 222.927 553.845 222.927 537.335L222.927 523.328C222.927 514.759 217.42 507.144 209.227 504.382C199.342 501.051 189.588 497.008 180.235 492.365C172.465 488.506 163.17 489.989 157.108 496.052L147.193 505.965C141.538 511.621 134.019 514.737 126.02 514.737C118.022 514.737 110.502 511.622 104.846 505.965L61.3221 462.443C55.6659 456.788 52.5503 449.268 52.5503 441.269C52.5503 433.27 55.6659 425.75 61.321 420.095L71.2352 410.182C74.9857 406.43 77.052 401.427 77.052 396.092C77.052 392.984 76.3164 389.858 74.9236 387.054C70.2801 377.697 66.236 367.944 62.9043 358.062C60.1422 349.867 52.5293 344.362 43.9591 344.362L29.9499 344.362C13.4388 344.362 0.00572284 330.927 0.00572356 314.418L0.00243035 252.864ZM375.14 283.641C375.14 261.732 367.307 239.336 352.488 218.87C351.353 217.305 349.983 215.933 348.414 214.797C313.937 189.831 275.188 185.199 242.102 202.09C211.289 217.821 192.145 249.07 192.145 283.641C192.145 305.55 199.978 327.947 214.798 348.412C215.932 349.978 217.303 351.35 218.872 352.485C253.348 377.451 292.098 382.084 325.183 365.193C355.998 349.461 375.14 318.212 375.14 283.641Z" fill="url(#paint0_linear)"/>
<path d="M252.874 562.287L314.426 562.287C328.207 562.287 339.38 551.116 339.38 537.333L339.38 523.324C339.38 512.571 346.288 503.084 356.477 499.651C366.246 496.358 375.717 492.422 384.843 487.892C394.491 483.103 406.102 484.906 413.719 492.523L423.633 502.437C433.379 512.182 449.179 512.182 458.923 502.437L502.448 458.912C512.194 449.166 512.194 433.367 502.448 423.622L492.534 413.708C484.917 406.091 483.115 394.48 487.904 384.832C492.434 375.706 496.371 366.235 499.663 356.466C503.097 346.276 512.584 339.368 523.336 339.368L537.347 339.368C551.128 339.368 562.301 328.197 562.301 314.415L562.301 252.862C562.301 239.081 551.129 227.908 537.347 227.908L523.338 227.908C512.585 227.908 503.098 221 499.665 210.811C496.372 201.042 492.435 191.571 487.906 182.445C483.116 172.797 484.92 161.186 492.536 153.569L502.45 143.655C512.196 133.909 512.196 118.109 502.45 108.365L458.923 64.8391C449.178 55.0933 433.378 55.0933 423.633 64.8391L413.719 74.7532C406.102 82.3705 394.491 84.1721 384.843 79.3835C375.717 74.8529 366.246 70.9163 356.477 67.6245C346.287 64.1898 339.38 54.7033 339.38 43.9515L339.38 29.9401C339.38 16.1591 328.208 4.98632 314.426 4.98632L252.874 4.98631C239.093 4.98631 227.92 16.158 227.92 29.9401L227.92 43.9493C227.92 54.7022 221.012 64.1887 210.823 67.6223C201.054 70.9152 191.583 74.8518 182.456 79.3812C172.808 84.171 161.198 82.3672 153.58 74.751L143.666 64.8368C133.92 55.0911 118.121 55.0911 108.376 64.8368L64.8515 108.361C55.1057 118.107 55.1057 133.907 64.8515 143.651L74.7656 153.566C82.383 161.183 84.1845 172.793 79.3959 182.442C74.8654 191.568 70.9287 201.039 67.6369 210.808C64.2022 220.998 54.7157 227.905 43.964 227.905L29.9548 227.905C16.1738 227.905 5.00097 239.077 5.00097 252.859L5.00096 314.411C5.00096 328.192 16.1727 339.365 29.9548 339.365L43.964 339.365C54.7168 339.365 64.2044 346.273 67.6369 356.462C70.9298 366.231 74.8665 375.702 79.3959 384.829C84.1856 394.477 82.3818 406.087 74.7656 413.705L64.8515 423.619C55.1057 433.364 55.1057 449.164 64.8515 458.909L108.376 502.433C118.122 512.179 133.921 512.179 143.666 502.433L153.58 492.519C161.198 484.902 172.808 483.1 182.456 487.889C191.583 492.419 201.054 496.356 210.823 499.648C221.013 503.083 227.92 512.569 227.92 523.321L227.92 537.33C227.92 551.116 239.093 562.287 252.874 562.287ZM210.764 351.335C137.255 249.825 249.839 137.242 351.348 210.75C353.338 212.191 355.095 213.948 356.537 215.939C430.045 317.448 317.462 430.032 215.953 356.523C213.962 355.083 212.204 353.326 210.764 351.335Z" fill="url(#paint1_linear)"/>
<path d="M249.817 562.08C249.899 561.995 249.986 561.915 250.067 561.829C251.866 560.106 253.628 558.343 255.351 556.545C257.149 554.822 258.912 553.059 260.635 551.261C262.433 549.538 264.196 547.775 265.919 545.977C267.717 544.254 269.48 542.491 271.203 540.693C273.001 538.97 274.764 537.207 276.487 535.409C278.285 533.686 280.048 531.923 281.771 530.125C283.569 528.402 285.332 526.639 287.055 524.841C288.853 523.118 290.616 521.355 292.339 519.557C294.137 517.834 295.9 516.071 297.623 514.273C299.421 512.55 301.184 510.788 302.907 508.989C304.705 507.266 306.468 505.504 308.191 503.705C309.989 501.982 311.752 500.22 313.474 498.421C315.273 496.699 317.035 494.936 318.758 493.138C320.557 491.415 322.319 489.652 324.042 487.854C325.841 486.131 327.603 484.368 329.326 482.57C331.124 480.847 332.887 479.084 334.61 477.286C336.408 475.563 338.171 473.8 339.894 472.002C341.692 470.279 343.455 468.516 345.178 466.718C346.976 464.995 348.739 463.232 350.462 461.434C352.26 459.711 354.023 457.948 355.746 456.15C357.544 454.427 359.307 452.664 361.03 450.866C362.828 449.143 364.591 447.38 366.314 445.582C368.112 443.859 369.875 442.096 371.598 440.298C373.396 438.575 375.159 436.813 376.882 435.014C378.68 433.291 380.443 431.529 382.166 429.73C383.964 428.007 385.727 426.245 387.449 424.446C389.248 422.724 391.01 420.961 392.733 419.163C394.532 417.44 396.294 415.677 398.017 413.879C399.816 412.156 401.578 410.393 403.301 408.595C436.186 377.092 456.66 332.756 456.66 283.638C456.66 188.09 379.195 110.625 283.647 110.625C234.528 110.625 190.192 131.099 158.699 163.974C156.901 165.697 155.138 167.46 153.415 169.258C151.617 170.981 149.854 172.744 148.131 174.542C146.333 176.265 144.57 178.027 142.848 179.826C141.049 181.549 139.287 183.311 137.564 185.11C135.765 186.833 134.003 188.595 132.28 190.394C130.481 192.116 128.719 193.879 126.996 195.678C125.198 197.4 123.435 199.163 121.712 200.961C119.914 202.684 118.151 204.447 116.428 206.245C114.63 207.968 112.867 209.731 111.144 211.529C109.346 213.252 107.583 215.015 105.86 216.813C104.062 218.536 102.299 220.299 100.576 222.097C98.7779 223.82 97.0151 225.583 95.2922 227.381C93.494 229.104 91.7312 230.867 90.0083 232.665C88.21 234.388 86.4472 236.151 84.7243 237.949C82.9261 239.672 81.1633 241.435 79.4404 243.233C77.6421 244.956 75.8794 246.719 74.1565 248.517C72.3582 250.24 70.5955 252.002 68.8726 253.801C67.0743 255.524 65.3115 257.286 63.5886 259.085C61.7904 260.808 60.0276 262.57 58.3047 264.369C56.5065 266.091 54.7436 267.854 53.0207 269.652C51.2225 271.375 49.4597 273.138 47.7368 274.936C45.9386 276.659 44.1758 278.422 42.4529 280.22C40.6547 281.943 38.8919 283.706 37.169 285.504C35.3708 287.227 33.608 288.99 31.8851 290.788C30.0868 292.511 28.324 294.274 26.6011 296.072C24.8029 297.795 23.0401 299.558 21.3172 301.356C19.5189 303.079 17.7562 304.842 16.0333 306.64C14.235 308.363 12.4723 310.126 10.7494 311.924C8.9511 313.647 7.18832 315.41 5.46541 317.208C5.38009 317.29 5.30034 317.377 5.21392 317.458C6.72408 329.796 17.2166 339.355 29.9616 339.355L43.9708 339.355C54.7237 339.355 64.2113 346.263 67.6449 356.452C70.9378 366.221 74.8744 375.692 79.4038 384.819C84.1936 394.467 82.3898 406.077 74.7736 413.695L64.8595 423.609C55.1137 433.355 55.1137 449.153 64.8595 458.899L108.384 502.423C118.13 512.169 133.928 512.169 143.674 502.423L153.588 492.509C161.206 484.892 172.816 483.09 182.464 487.879C191.591 492.41 201.062 496.346 210.831 499.638C221.021 503.073 227.928 512.559 227.928 523.312L227.928 537.321C227.919 550.076 237.48 560.57 249.817 562.08ZM215.951 356.522C213.961 355.082 212.203 353.324 210.762 351.333C137.253 249.824 249.837 137.241 351.346 210.749C353.336 212.19 355.093 213.947 356.535 215.938C430.043 317.447 317.46 430.031 215.951 356.522Z" fill="url(#paint2_linear)"/>
<path d="M110.633 283.638C110.633 379.187 188.098 456.652 283.647 456.652C379.195 456.652 456.66 379.186 456.66 283.638C456.66 188.091 379.195 110.625 283.647 110.625C188.098 110.625 110.633 188.09 110.633 283.638ZM403.108 283.638C403.108 349.609 349.619 403.1 283.647 403.1C217.675 403.1 164.185 349.611 164.185 283.638C164.185 217.666 217.676 164.177 283.647 164.177C349.618 164.177 403.108 217.666 403.108 283.638Z" fill="url(#paint3_linear)"/>
<path d="M448.437 283.652C448.437 192.654 374.662 118.877 283.663 118.877C192.664 118.877 118.888 192.654 118.888 283.651C118.888 374.649 192.665 448.425 283.663 448.425C374.661 448.425 448.437 374.649 448.437 283.652ZM199.215 283.651C199.215 237.016 237.027 199.204 283.663 199.204C330.299 199.204 368.11 237.016 368.11 283.652C368.11 330.287 330.299 368.099 283.663 368.099C237.027 368.099 199.215 330.286 199.215 283.651Z" fill="url(#paint4_linear)"/>
<path d="M262.424 455.36C263.517 454.281 264.59 453.185 265.635 452.06C267.587 450.247 269.472 448.363 271.285 446.411C273.237 444.599 275.12 442.716 276.933 440.762C278.885 438.951 280.769 437.067 282.581 435.113C284.534 433.301 286.417 431.417 288.231 429.463C290.183 427.651 292.067 425.768 293.879 423.815C295.832 422.003 297.715 420.119 299.528 418.165C301.48 416.353 303.364 414.47 305.176 412.517C307.129 410.704 309.013 408.819 310.826 406.867C312.778 405.055 314.662 403.172 316.474 401.217C318.427 399.406 320.31 397.522 322.123 395.569C324.075 393.756 325.96 391.872 327.772 389.919C329.725 388.107 331.609 386.222 333.422 384.27C335.374 382.458 337.258 380.575 339.07 378.621C341.023 376.81 342.906 374.926 344.719 372.973C346.671 371.161 348.555 369.277 350.367 367.323C352.32 365.512 354.203 363.628 356.017 361.675C376.969 342.231 390.094 314.47 390.094 283.634C390.094 224.835 342.423 177.164 283.624 177.164C252.788 177.164 225.028 190.289 205.583 211.241C203.631 213.052 201.747 214.936 199.934 216.89C197.982 218.702 196.099 220.586 194.285 222.539C192.333 224.35 190.449 226.234 188.636 228.187C186.684 229.999 184.801 231.882 182.988 233.836C181.036 235.647 179.151 237.533 177.338 239.485C175.386 241.298 173.501 243.183 171.689 245.135C169.737 246.946 167.853 248.83 166.04 250.783C164.088 252.595 162.205 254.478 160.391 256.432C158.439 258.244 156.554 260.129 154.741 262.081C152.789 263.893 150.905 265.776 149.093 267.73C147.141 269.541 145.257 271.425 143.443 273.378C141.491 275.19 139.607 277.073 137.795 279.027C135.843 280.838 133.959 282.722 132.145 284.676C130.193 286.488 128.309 288.371 126.496 290.325C124.543 292.136 122.661 294.02 120.847 295.973C118.895 297.785 117.01 299.671 115.198 301.623C114.073 302.668 112.977 303.742 111.898 304.834C121.504 383.439 183.821 445.756 262.424 455.36ZM199.172 283.641C199.172 237.006 236.984 199.194 283.62 199.194C330.255 199.194 368.067 237.006 368.067 283.641C368.067 330.277 330.255 368.089 283.62 368.089C236.984 368.089 199.172 330.276 199.172 283.641Z" fill="url(#paint5_linear)"/>
<path d="M385.047 283.636C385.047 227.637 339.647 182.236 283.647 182.236C227.648 182.236 182.248 227.637 182.248 283.636C182.248 339.635 227.648 385.035 283.647 385.035C339.647 385.035 385.047 339.634 385.047 283.636ZM231.68 283.636C231.68 254.937 254.95 231.669 283.647 231.669C312.345 231.669 335.615 254.938 335.615 283.636C335.615 312.334 312.345 335.603 283.647 335.603C254.95 335.603 231.68 312.334 231.68 283.636Z" fill="url(#paint6_linear)"/>
<path d="M177.155 283.634C177.155 342.433 224.825 390.103 283.624 390.103C342.423 390.103 390.094 342.433 390.094 283.634C390.094 224.835 342.423 177.164 283.624 177.164C224.825 177.164 177.155 224.835 177.155 283.634ZM357.139 283.634C357.139 324.231 324.222 357.149 283.624 357.149C243.026 357.149 210.109 324.231 210.109 283.634C210.109 243.036 243.027 210.119 283.624 210.119C324.221 210.119 357.139 243.035 357.139 283.634Z" fill="url(#paint7_linear)"/>
</g>
<mask id="mask1" mask-type="alpha" maskUnits="userSpaceOnUse" x="0" y="283" width="568" height="294">
<rect width="292.414" height="567.283" transform="matrix(4.37114e-08 -1 -1 -4.37114e-08 567.285 576.072)" fill="#C4C4C4"/>
</mask>
<g mask="url(#mask1)">
<path d="M0.00242901 292.419C0.00242216 449.069 126.993 576.06 283.644 576.06C440.295 576.06 567.285 449.07 567.285 292.419C567.285 135.768 440.295 8.77734 283.644 8.77733C126.993 8.77732 0.00243586 135.768 0.00242901 292.419Z" fill="url(#paint8_linear)"/>
<path d="M0.00242901 292.419C0.00242216 449.069 126.993 576.06 283.644 576.06C440.295 576.06 567.285 449.07 567.285 292.419C567.285 135.768 440.295 8.77734 283.644 8.77733C126.993 8.77732 0.00243586 135.768 0.00242901 292.419Z" fill="url(#paint9_radial)"/>
<path d="M61.0466 292.426C61.0466 415.36 160.704 515.018 283.638 515.018C406.573 515.018 506.23 415.36 506.23 292.426C506.23 169.492 406.573 69.834 283.639 69.834C160.704 69.834 61.0466 169.492 61.0466 292.426Z" fill="url(#paint10_linear)"/>
<path d="M112.171 292.434C112.171 387.143 188.948 463.921 283.658 463.921C378.367 463.921 455.145 387.143 455.145 292.434C455.145 197.724 378.367 120.947 283.658 120.947C188.948 120.947 112.171 197.724 112.171 292.434Z" fill="url(#paint11_linear)"/>
<path d="M112.171 292.434C112.171 387.143 188.948 463.921 283.658 463.921C378.367 463.921 455.145 387.143 455.145 292.434C455.145 197.724 378.367 120.947 283.658 120.947C188.948 120.947 112.171 197.724 112.171 292.434Z" fill="url(#paint12_radial)"/>
<path d="M137.707 292.424C137.707 373.02 203.044 438.357 283.641 438.357C364.238 438.357 429.574 373.021 429.574 292.424C429.574 211.827 364.238 146.49 283.641 146.49C203.044 146.49 137.707 211.827 137.707 292.424Z" fill="url(#paint13_linear)"/>
<path d="M171.806 309.354C171.798 229.536 237.823 163.354 317.446 163.598C333.984 163.67 349.884 166.598 364.754 171.876C341.449 155.924 313.593 146.485 283.655 146.49C204.263 146.665 137.897 213.032 137.721 292.424C137.742 355.502 179.777 410.022 236.484 430.25C197.933 403.737 171.897 359.313 171.806 309.354Z" fill="url(#paint14_linear)"/>
</g>
<defs>
<linearGradient id="paint0_linear" x1="529.873" y1="529.868" x2="125.816" y2="125.809" gradientUnits="userSpaceOnUse">
<stop stop-color="#5B6A6A"/>
<stop offset="0.311" stop-color="#C2CECE" stop-opacity="0"/>
<stop offset="0.348" stop-color="#CAD5D5" stop-opacity="0.157"/>
<stop offset="0.47" stop-color="#E0E8E7" stop-opacity="0.669"/>
<stop offset="0.549" stop-color="#E8EFEE"/>
<stop offset="0.788" stop-color="#97AAAA"/>
<stop offset="0.861" stop-color="#9CAEAE" stop-opacity="0.724"/>
<stop offset="0.946" stop-color="#AAB9B9" stop-opacity="0.402"/>
<stop offset="1" stop-color="#B7C3C3" stop-opacity="0.196"/>
</linearGradient>
<linearGradient id="paint1_linear" x1="375.173" y1="283.645" x2="14.3579" y2="283.645" gradientUnits="userSpaceOnUse">
<stop stop-color="#C2CECE"/>
<stop offset="1" stop-color="#97AAAA"/>
</linearGradient>
<linearGradient id="paint2_linear" x1="110.29" y1="457.014" x2="446.427" y2="120.876" gradientUnits="userSpaceOnUse">
<stop stop-color="#363F3E" stop-opacity="0"/>
<stop offset="1" stop-color="#303033"/>
</linearGradient>
<linearGradient id="paint3_linear" x1="196.352" y1="370.952" x2="382.793" y2="184.511" gradientUnits="userSpaceOnUse">
<stop stop-color="#C2CECE"/>
<stop offset="0.293" stop-color="#BBC8C8"/>
<stop offset="0.72" stop-color="#A8B8B8"/>
<stop offset="1" stop-color="#97AAAA"/>
</linearGradient>
<linearGradient id="paint4_linear" x1="408.527" y1="408.513" x2="141.104" y2="141.09" gradientUnits="userSpaceOnUse">
<stop stop-color="#00A6F9"/>
<stop offset="1" stop-color="#0071E2"/>
</linearGradient>
<linearGradient id="paint5_linear" x1="127.42" y1="439.857" x2="269.494" y2="297.784" gradientUnits="userSpaceOnUse">
<stop offset="0.0001" stop-color="#008BF2" stop-opacity="0"/>
<stop offset="1" stop-color="#0046E2"/>
</linearGradient>
<linearGradient id="paint6_linear" x1="308.099" y1="283.644" x2="196.364" y2="283.644" gradientUnits="userSpaceOnUse">
<stop stop-color="#C2CECE"/>
<stop offset="1" stop-color="#97AAAA"/>
</linearGradient>
<linearGradient id="paint7_linear" x1="229.906" y1="337.37" x2="344.643" y2="222.633" gradientUnits="userSpaceOnUse">
<stop stop-color="#C2CECE"/>
<stop offset="0.293" stop-color="#BBC8C8"/>
<stop offset="0.72" stop-color="#A8B8B8"/>
<stop offset="1" stop-color="#97AAAA"/>
</linearGradient>
<linearGradient id="paint8_linear" x1="83.0794" y1="91.8543" x2="484.208" y2="492.983" gradientUnits="userSpaceOnUse">
<stop stop-color="#FF4C4C"/>
<stop offset="1" stop-color="#FFF200"/>
</linearGradient>
<radialGradient id="paint9_radial" cx="0" cy="0" r="1" gradientUnits="userSpaceOnUse" gradientTransform="translate(283.644 292.419) rotate(90) scale(283.641)">
<stop stop-color="#FF4C4C"/>
<stop offset="0.1081" stop-color="#FF544E" stop-opacity="0.887"/>
<stop offset="0.2693" stop-color="#FF6853" stop-opacity="0.718"/>
<stop offset="0.4637" stop-color="#FF895C" stop-opacity="0.514"/>
<stop offset="0.6838" stop-color="#FFB767" stop-opacity="0.283"/>
<stop offset="0.9228" stop-color="#FFF276" stop-opacity="0.033"/>
<stop offset="0.9537" stop-color="#FFFA78" stop-opacity="0"/>
</radialGradient>
<linearGradient id="paint10_linear" x1="-103.266" y1="-94.4786" x2="499.534" y2="508.321" gradientUnits="userSpaceOnUse">
<stop stop-color="#FFB11D"/>
<stop offset="1" stop-color="#FEFFD6"/>
</linearGradient>
<linearGradient id="paint11_linear" x1="82.9728" y1="91.7488" x2="456.852" y2="465.628" gradientUnits="userSpaceOnUse">
<stop stop-color="#FF8C00"/>
<stop offset="1" stop-color="#FFFA78"/>
</linearGradient>
<radialGradient id="paint12_radial" cx="0" cy="0" r="1" gradientUnits="userSpaceOnUse" gradientTransform="translate(283.658 292.434) rotate(90) scale(220.868)">
<stop stop-color="#FFCB00" stop-opacity="0"/>
<stop offset="0.3171" stop-color="#FFC800" stop-opacity="0.317"/>
<stop offset="0.5411" stop-color="#FFBF00" stop-opacity="0.541"/>
<stop offset="0.7363" stop-color="#FFAF00" stop-opacity="0.736"/>
<stop offset="0.9142" stop-color="#FF9A00" stop-opacity="0.914"/>
<stop offset="1" stop-color="#FF8C00"/>
</radialGradient>
<linearGradient id="paint13_linear" x1="43.8021" y1="52.585" x2="393.845" y2="402.628" gradientUnits="userSpaceOnUse">
<stop stop-color="#FFB11D"/>
<stop offset="1" stop-color="#FEFFD6"/>
</linearGradient>
<linearGradient id="paint14_linear" x1="137.473" y1="148.069" x2="380.285" y2="390.88" gradientUnits="userSpaceOnUse">
<stop stop-color="#FFB11D"/>
<stop offset="1" stop-color="#FEFFD6"/>
</linearGradient>
</defs>
</svg>
